<?xml version="1.0" encoding="UTF-8"?>
<svg width="54px" height="54px" viewBox="0 0 54 54" version="1.1" xmlns="http://www.w3.org/2000/svg" xmlns:xlink="http://www.w3.org/1999/xlink">
    <title>目录</title>
    <g id="页面-1" stroke="none" stroke-width="1" fill="none" fill-rule="evenodd">
        <g id="Learn-slide1" transform="translate(-619.000000, -1194.000000)" fill-rule="nonzero">
            <g id="目录" transform="translate(619.333333, 1194.333333)">
                <rect id="矩形" fill="#000000" opacity="0" x="0" y="0" width="53.3333333" height="53.3333333"></rect>
                <path d="M43.3333333,1.33333333 L10,1.33333333 C7.33333333,1.33333333 5.66666667,3.33333333 5.66666667,6 L5.66666667,47.6666667 C5.66666667,50.3333333 7.66666667,52 10,52 L43.3333333,52 C46,52 47.6666667,50 47.6666667,47.6666667 L47.6666667,6 C47.6666667,3.33333333 46,1.33333333 43.3333333,1.33333333 L43.3333333,1.33333333 Z M13.3333333,38.6666667 C12.6666667,38.6666667 12,38 12,37.3333333 C12,36.6666667 12.6666667,36 13.3333333,36 C14,36 14.6666667,36.6666667 14.6666667,37.3333333 C14.6666667,38 14,38.6666667 13.3333333,38.6666667 Z M13.3333333,27 C12,27 11.3333333,26.3333333 11.3333333,25.6666667 C11.3333333,25 12,24.3333333 12.6666667,24.3333333 C13.3333333,24.3333333 14,25 14,25.6666667 C14,26.3333333 14,27 13.3333333,27 Z M13.3333333,15.3333333 C12.6666667,15.3333333 12,14.6666667 12,14 C12,13.3333333 12.6666667,12.6666667 13.3333333,12.6666667 C14,12.6666667 14.6666667,13.3333333 14.6666667,14 C14.6666667,14.6666667 14,15.3333333 13.3333333,15.3333333 Z M40.6666667,38.6666667 L21.6666667,38.6666667 C21,38.6666667 19.6666667,38 19.6666667,36.6666667 C19.6666667,36 20.3333333,34.6666667 21.6666667,34.6666667 L41,34.6666667 C41.6666667,34.6666667 43,35.3333333 43,36.6666667 C42.6666667,38 42,38.6666667 40.6666667,38.6666667 L40.6666667,38.6666667 Z M40.6666667,27 L21.6666667,27 C20.3333333,27 19.6666667,26.3333333 19.6666667,25.6666667 C19.6666667,25 20.3333333,23.6666667 21.6666667,23.6666667 L41,23.6666667 C41.6666667,23.6666667 43,24.3333333 43,25.6666667 C42.6666667,27 42,27 40.6666667,27 L40.6666667,27 Z M40.6666667,15.3333333 L21.6666667,15.3333333 C21,15.3333333 19.6666667,14.6666667 19.6666667,13.3333333 C19.6666667,12.6666667 20.3333333,11.3333333 21.6666667,11.3333333 L41,11.3333333 C41.6666667,11.3333333 43,12 43,13.3333333 C43,14.6666667 42,15.3333333 40.6666667,15.3333333 L40.6666667,15.3333333 Z" id="形状" fill="#22B784"></path>
            </g>
        </g>
    </g>
</svg>